<svg width="200" height="200" viewBox="0 0 200 200" xmlns="http://www.w3.org/2000/svg">
  <!-- Background circle -->
  <circle cx="100" cy="100" r="95" fill="#f0fdf5" stroke="#2d7a3a" stroke-width="2"/>
  
  <!-- Main cultivator leaf shape -->
  <path d="M 100 30 Q 115 50 120 75 Q 125 100 115 125 Q 100 145 100 150 Q 100 145 85 125 Q 75 100 80 75 Q 85 50 100 30 Z" 
        fill="#2d7a3a" stroke="#1f5428" stroke-width="2"/>
  
  <!-- Secondary leaves -->
  <path d="M 70 80 Q 55 85 45 95 Q 40 105 50 115 Q 65 110 75 95 Z" 
        fill="#4db84f" stroke="#2d7a3a" stroke-width="1.5"/>
  <path d="M 130 80 Q 145 85 155 95 Q 160 105 150 115 Q 135 110 125 95 Z" 
        fill="#4db84f" stroke="#2d7a3a" stroke-width="1.5"/>
  
  <!-- Text "C" for Cultivator -->
  <text x="100" y="155" font-size="24" font-weight="bold" fill="#2d7a3a" text-anchor="middle" font-family="Arial">C</text>
</svg>